# xmcd
#
# Track frame offsets:
#	150
#	24063
#	47655
#	72038
#	97603
#	118368
#	142153
#	163710
#	184950
#	213545
#
# Disc length: 3133 seconds
#
# Revision: 1
# Processed by: cddbd v1.4PL0 Copyright (c) Steve Scherf et al.
# Submitted via: EasyCDDAExtractor 5.0.7
#
DISCID=890c3b0a
DTITLE=Anh Khoa - Ngay Nao Cho Toi Gap Lai Em
DYEAR=1900
DGENRE=
TTITLE0=Bai khong ten so 7
TTITLE1=Mot lan no cho toi gap lai em
TTITLE2=Xin dung nho
TTITLE3=Toidua em sang song
TTITLE4=Bai khong ten so 9
TTITLE5=Nguoi yeu da ra di
TTITLE6=Loi nguoi yeu
TTITLE7=Buon oi ta xin chao mi
TTITLE8=Dung de anh xa em
TTITLE9=Dung yeu toi
EXTD=
EXTT0=
EXTT1=
EXTT2=
EXTT3=
EXTT4=
EXTT5=
EXTT6=
EXTT7=
EXTT8=
EXTT9=
PLAYORDER=
